<svg width="18" height="17" viewBox="0 0 18 17" fill="none" xmlns="http://www.w3.org/2000/svg">
<path d="M9.49089 16.1146C5.77922 16.1146 2.76172 13.0971 2.76172 9.38542C2.76172 5.67375 5.77922 2.65625 9.49089 2.65625C13.2026 2.65625 16.2201 5.67375 16.2201 9.38542C16.2201 13.0971 13.2026 16.1146 9.49089 16.1146ZM9.49089 3.71875C6.36714 3.71875 3.82422 6.26167 3.82422 9.38542C3.82422 12.5092 6.36714 15.0521 9.49089 15.0521C12.6146 15.0521 15.1576 12.5092 15.1576 9.38542C15.1576 6.26167 12.6146 3.71875 9.49089 3.71875Z" fill="currentColor"/>
<path d="M9.49084 9.73959C9.20043 9.73959 8.95959 9.49876 8.95959 9.20834V5.66667C8.95959 5.37626 9.20043 5.13542 9.49084 5.13542C9.78126 5.13542 10.0221 5.37626 10.0221 5.66667V9.20834C10.0221 9.49876 9.78126 9.73959 9.49084 9.73959Z" fill="currentColor"/>
<path d="M11.6158 1.94792H7.36584C7.07543 1.94792 6.83459 1.70709 6.83459 1.41667C6.83459 1.12626 7.07543 0.885422 7.36584 0.885422H11.6158C11.9063 0.885422 12.1471 1.12626 12.1471 1.41667C12.1471 1.70709 11.9063 1.94792 11.6158 1.94792Z" fill="currentColor"/>
</svg>
